{"title":"Agni Sakshi 1996 DvDrip x264 ~ Musical | Romance | Thriller ~ [R","uid":6647108,"size":1525172758,"categoryP":"video","categoryS":"movies","magnet":"?xt=urn:btih:0158e05c3be724a484db76eacb5c81fb0730a856&amp;dn=Agni+Sakshi+1996+DvDrip+x264+%7E+Musical+%7C+Romance+%7C+Thriller+%7E+%5BR&amp;tr=udp%3A%2F%2Ftracker.openbittorrent.com%3A80&amp;tr=udp%3A%2F%2Fopen.demonii.com%3A1337&amp;tr=udp%3A%2F%2Ftracker.coppersurfer.tk%3A6969&amp;tr=udp%3A%2F%2Fexodus.desync.com%3A6969","seeders":0,"leechers":1,"uploader":"ilyas2000pk","files":-1,"time":1314988546,"description":"Color\nC\n\nRelease Date\nMarch 29, 1996\n\nLanguage\nHindi\n\nGenre\nMusical  /  Thriller  /  Romance\n\nShooting Locations (City &amp; Country)\nDelhi (India)\nIndia\nMauritius\n\nProducer\nBinda Thackarey\n\nDirector\nPartho Ghosh\n\nStar Cast\nJackie Shroff...... Suraj Kapoor\nNana Patekar...... Vishwanath\nManisha Koirala...... Shubhangi/Madhu\nRavi Behl...... Ravi Kapoor\nDivya Dutta...... Urmi\nAlok Nath...... Madhu's father\nAsha Lata...... Mrs. Kapoor (Mother)\nSubbiraj...... Mr. Kapoor (Father)\nAvtar Gill...... Urmi's father\nAchyut Potdar...... Commisioner\nBrijesh Tiwari...... (as Brijesh T.)\n\nCassettes and CD's on\nZee Music\n\nSingers\nAlka Yagnik\nKavita Krishnamurthy\nVinod Rathod\nAlisha Chinoy\nBabul Supriyo\nKumar Sanu\nJolly Mukherjee\n\nLyricist\nSameer\n\nMusic Director\nNadeem Saifee\nShravan Kumar\n\nBackground Music\nNaresh Sharma\n\nChoreography\nNimesh Bhatt\nGanesh Hegde\n\nAction\nSham Kaushal\nThakur\n\nArt\nR Verman\nManohar\n\nEditor\nR Rajendran\n\nSound\nPrakash Bhatia\n\nCostume\nAnna Singh\n\nMedia Relations\nR R Pathak\n\nPublicity Designs\nStudio Link\n\n\nRipper                           : Rahul\nComplete name                    : Agni Sakshi 1996 DvDrip x264 ~ Musical | Romance | Thriller ~ [RdY]\nFormat                           : Matroska\nFile size                        : 1.42 GiB\nDuration                         : 2h 21mn\nOverall bit rate                 : 1 432 Kbps\nWriting library                  : libmkv 0.6.4.1\n\nVideo\nID                               : 1\nFormat                           : AVC\nFormat/Info                      : Advanced Video Codec\nFormat profile                   : &lt;a class=&quot;__cf_email__&quot; href=&quot;/cdn-cgi/l/email-protection&quot; data-cfemail=&quot;88c0e1efe0c8c4bba6b8&quot;&gt;[email&amp;#160;protected]&lt;/a&gt;&lt;script data-cfhash='f9e31' type=&quot;text/javascript&quot;&gt;\n/* &lt;![CDATA[ */!function(){try{var t=&quot;currentScript&quot;in document?document.currentScript:function(){for(var t=document.getElementsByTagName(&quot;script&quot;),e=t.length;e--;)if(t[e].getAttribute(&quot;data-cfhash&quot;))return t[e]}();if(t&amp;&amp;t.previousSibling){var e,r,n,i,c=t.previousSibling,a=c.getAttribute(&quot;data-cfemail&quot;);if(a){for(e=&quot;&quot;,r=parseInt(a.substr(0,2),16),n=2;a.length-n;n+=2)i=parseInt(a.substr(n,2),16)^r,e+=String.fromCharCode(i);e=document.createTextNode(e),c.parentNode.replaceChild(e,c)}t.parentNode.removeChild(t);}}catch(u){}}()/* ]]&gt; */&lt;/script&gt;\nFormat settings, CABAC           : Yes\nFormat settings, ReFrames        : 4 frames\nFormat settings, GOP             : M=1, N=4\nCodec ID                         : V_MPEG4/ISO/AVC\nDuration                         : 2h 21mn\nBit rate                         : 956 Kbps\nNominal bit rate                 : 1 202 Kbps\nWidth                            : 720 pixels\nHeight                           : 384 pixels\nDisplay aspect ratio             : 1.875\nFrame rate                       : 23.976 fps\nColor space                      : YUV\nChroma subsampling               : 4.2.0\nBit depth                        : 8 bits\nScan type                        : Progressive\nBits/(Pixel*Frame)               : 0.144\nStream size                      : 971 MiB (67%)\nWriting library                  : x264 core 112\n\nAudio\nID                               : 2\nFormat                           : AC-3\nFormat/Info                      : Audio Coding 3\nMode extension                   : CM (complete main)\nCodec ID                         : A_AC3\nDuration                         : 2h 21mn\nBit rate mode                    : Constant\nBit rate                         : 448 Kbps\nChannel(s)                       : 6 channels\nChannel positions                : Front: L C R, Side: L R, LFE\nSampling rate                    : 48.0 KHz\nBit depth                        : 16 bits\nCompression mode                 : Lossy\nStream size                      : 455 MiB (31%)","torrent":{"xt":"urn:btih:0158e05c3be724a484db76eacb5c81fb0730a856","amp;dn":"Agni+Sakshi+1996+DvDrip+x264+%7E+Musical+%7C+Romance+%7C+Thriller+%7E+%5BR","amp;tr":["udp%3A%2F%2Ftracker.openbittorrent.com%3A80","udp%3A%2F%2Fopen.demonii.com%3A1337","udp%3A%2F%2Ftracker.coppersurfer.tk%3A6969","udp%3A%2F%2Fexodus.desync.com%3A6969"],"infoHash":"0158e05c3be724a484db76eacb5c81fb0730a856","infoHashBuffer":{"type":"Buffer","data":[1,88,224,92,59,231,36,164,132,219,118,234,203,92,129,251,7,48,168,86]},"announce":[],"urlList":[]}}